<svg width="20" height="20" viewBox="0 0 20 20" fill="none" xmlns="http://www.w3.org/2000/svg">
<mask id="mask0_630_1480" style="mask-type:alpha" maskUnits="userSpaceOnUse" x="0" y="0" width="20" height="20">
<rect width="20" height="20" fill="#FFA628" style="fill:#FFA628;fill:color(display-p3 1.0000 0.6510 0.1569);fill-opacity:1;"/>
</mask>
<g mask="url(#mask0_630_1480)">
<path d="M9.99563 14C10.2069 14 10.3854 13.9285 10.5312 13.7856C10.6771 13.6427 10.75 13.4656 10.75 13.2544C10.75 13.0431 10.6785 12.8646 10.5356 12.7188C10.3927 12.5729 10.2156 12.5 10.0044 12.5C9.79313 12.5 9.61458 12.5715 9.46875 12.7144C9.32292 12.8573 9.25 13.0344 9.25 13.2456C9.25 13.4569 9.32146 13.6354 9.46438 13.7812C9.60729 13.9271 9.78438 14 9.99563 14ZM9.25 11H10.75V6H9.25V11ZM10 18.5L7.5 16H4V12.5L1.5 10L4 7.5V4H7.5L10 1.5L12.5 4H16V7.5L18.5 10L16 12.5V16H12.5L10 18.5Z" fill="#0B3C7D" style="fill:#0B3C7D;fill:color(display-p3 0.0431 0.2353 0.4902);fill-opacity:1;"/>
</g>
</svg>
