<svg width="160" height="22" viewBox="0 0 160 22" fill="none" xmlns="http://www.w3.org/2000/svg">
<path d="M31.252 18.9676L26.1182 5.88574H27.5208L31.8794 17.4655L36.2742 5.88574H37.6768L32.549 18.9616L31.252 18.9676Z" fill="white" style="fill:white;fill-opacity:1;"/>
<path d="M40.4191 17.6221C39.4518 16.5506 38.9419 15.1433 38.9984 13.7008C38.9984 12.1142 39.4689 10.8383 40.41 9.8731C40.8748 9.39524 41.4339 9.01944 42.0519 8.76964C42.6699 8.51984 43.3332 8.40153 43.9995 8.42224C44.867 8.40994 45.7192 8.65105 46.4518 9.116C47.1332 9.54094 47.6785 10.1522 48.0233 10.8775V8.62132H49.3505V18.9674H48.0233V16.693C47.6765 17.4202 47.1319 18.0349 46.4518 18.4666C45.7166 18.9353 44.8591 19.1756 43.9874 19.1574C43.3173 19.1722 42.6519 19.0428 42.0362 18.7779C41.4206 18.513 40.8691 18.1188 40.4191 17.6221ZM46.9102 16.8559C47.2914 16.4457 47.5872 15.9637 47.7803 15.4381C47.9735 14.9125 48.0602 14.3538 48.0353 13.7943C48.0597 13.2354 47.9729 12.6772 47.7797 12.1521C47.5866 11.6271 47.291 11.1456 46.9102 10.7358C46.5641 10.3627 46.1438 10.0661 45.6763 9.86508C45.2088 9.66405 44.7044 9.56301 44.1955 9.56845C43.6905 9.55919 43.189 9.65375 42.722 9.84624C42.2551 10.0387 41.8326 10.3251 41.4808 10.6875C40.7328 11.4315 40.3598 12.437 40.3618 13.7038C40.3143 14.8476 40.7197 15.9639 41.4899 16.8107C41.8295 17.1945 42.2477 17.5009 42.7161 17.7091C43.1844 17.9172 43.6921 18.0223 44.2046 18.0172C44.7095 18.0207 45.2096 17.9192 45.6733 17.7193C46.1369 17.5194 46.554 17.2254 46.8982 16.8559H46.9102Z" fill="white" style="fill:white;fill-opacity:1;"/>
<path d="M52.9128 17.6789C51.9898 16.6916 51.5283 15.3965 51.5283 13.7939C51.5283 12.1912 51.9898 10.8962 52.9128 9.90882C53.3733 9.42023 53.9328 9.03562 54.5539 8.78073C55.175 8.52583 55.8434 8.40654 56.5143 8.43082C58.9395 8.43082 60.4808 9.51771 61.1384 11.6915H59.7237C59.5381 11.0364 59.1336 10.4647 58.5775 10.0717C57.9663 9.67094 57.2445 9.47256 56.5143 9.50464C56.0239 9.48784 55.5356 9.57849 55.0839 9.77024C54.6322 9.96198 54.2278 10.2502 53.8992 10.6146C53.2295 11.3547 52.8947 12.4154 52.8947 13.7969C52.8947 15.1784 53.2295 16.2431 53.8992 16.9912C54.2266 17.3576 54.6306 17.6474 55.0825 17.8403C55.5344 18.0332 56.0233 18.1243 56.5143 18.1072C57.2425 18.1349 57.9609 17.9334 58.5685 17.5311C59.1301 17.1366 59.5382 16.5601 59.7237 15.8993H61.1474C60.8508 16.8378 60.2753 17.6638 59.4975 18.2671C58.4997 18.9366 57.3024 19.2434 56.1056 19.1364C54.9088 19.0293 53.785 18.5148 52.9219 17.6789H52.9128Z" fill="white" style="fill:white;fill-opacity:1;"/>
<path d="M64.3204 17.622C63.3531 16.5505 62.8433 15.1432 62.8997 13.7008C62.8997 12.1142 63.3703 10.8383 64.3114 9.87306C64.7762 9.39535 65.3354 9.01964 65.9534 8.76986C66.5714 8.52007 67.2346 8.40167 67.9008 8.4222C68.7715 8.40484 69.6282 8.64287 70.3652 9.10691C71.0481 9.53088 71.5947 10.1424 71.9397 10.8684V8.62128H73.2639V18.9673H71.9397V16.693C71.5927 17.4209 71.0468 18.0358 70.3652 18.4666C69.63 18.9352 68.7725 19.1756 67.9008 19.1573C67.2287 19.1739 66.561 19.0453 65.9431 18.7804C65.3252 18.5154 64.7718 18.1203 64.3204 17.622ZM70.8116 16.8559C71.1933 16.4459 71.4896 15.9641 71.6833 15.4384C71.877 14.9128 71.9641 14.3539 71.9397 13.7943C71.9637 13.2352 71.8764 12.6768 71.6827 12.1518C71.489 11.6267 71.1929 11.1454 70.8116 10.7357C70.4655 10.3626 70.0452 10.0661 69.5777 9.86504C69.1102 9.66401 68.6058 9.56297 68.0969 9.56841C67.5919 9.55915 67.0904 9.65371 66.6234 9.8462C66.1564 10.0387 65.734 10.325 65.3822 10.6875C64.6382 11.4315 64.2651 12.4369 64.2631 13.7038C64.217 14.8473 64.6222 15.9631 65.3912 16.8106C65.7311 17.1942 66.1494 17.5003 66.6177 17.7085C67.086 17.9166 67.5935 18.0219 68.1059 18.0172C68.6129 18.0223 69.1153 17.9217 69.5812 17.7217C70.047 17.5218 70.4661 17.2269 70.8116 16.8559Z" fill="white" style="fill:white;fill-opacity:1;"/>
<path d="M80.7111 9.66513H77.8517V16.5243C77.8114 16.9123 77.9191 17.3012 78.1533 17.6132C78.4598 17.8514 78.8476 17.9597 79.2331 17.9148H80.7111V18.9555H78.9496C77.3409 18.9555 76.5365 18.141 76.5365 16.5122V9.66513H75.0947V8.62148H76.5365V6.02441H77.8637V8.62148H80.7232L80.7111 9.66513Z" fill="white" style="fill:white;fill-opacity:1;"/>
<path d="M84.1798 5.69537C84.1826 5.82302 84.1598 5.94995 84.1126 6.0686C84.0655 6.18726 83.995 6.29523 83.9053 6.38611C83.818 6.47864 83.7121 6.55171 83.5947 6.60057C83.4772 6.64942 83.3508 6.67296 83.2236 6.66965C83.0947 6.67243 82.9666 6.6487 82.8473 6.59992C82.7279 6.55115 82.6199 6.47837 82.5298 6.38611C82.348 6.20158 82.2461 5.95292 82.2461 5.69387C82.2461 5.43481 82.348 5.18615 82.5298 5.00162C82.6199 4.90936 82.7279 4.83658 82.8473 4.78781C82.9666 4.73903 83.0947 4.7153 83.2236 4.71808C83.3508 4.71477 83.4772 4.73831 83.5947 4.78716C83.7121 4.83602 83.818 4.90909 83.9053 5.00162C83.9951 5.09306 84.0656 5.20156 84.1127 5.32071C84.1599 5.43987 84.1827 5.56726 84.1798 5.69537ZM82.5298 18.9673V8.62122H83.854V18.9673H82.5298Z" fill="white" style="fill:white;fill-opacity:1;"/>
<path d="M91.0473 19.1576C90.3736 19.1825 89.7024 19.0636 89.0782 18.8087C88.4541 18.5539 87.8914 18.1689 87.4277 17.6796C86.4987 16.6922 86.0342 15.4002 86.0342 13.8036C86.0342 12.2079 86.5289 10.9109 87.5152 9.92154C88.5078 8.96566 89.8322 8.43164 91.2102 8.43164C92.5882 8.43164 93.9126 8.96566 94.9052 9.92154C95.8886 10.9109 96.3832 12.2019 96.3832 13.7855C96.4079 14.5022 96.2824 15.2162 96.0149 15.8816C95.7473 16.547 95.3437 17.1491 94.8298 17.6494C94.3315 18.1399 93.7402 18.526 93.0907 18.785C92.4412 19.044 91.7465 19.1707 91.0473 19.1576ZM91.0473 18.0958C91.5659 18.1016 92.0802 18.0022 92.5592 17.8036C93.0382 17.6051 93.472 17.3115 93.8344 16.9406C94.6147 16.1724 95.0058 15.1207 95.0078 13.7855C95.0098 12.4502 94.6368 11.4016 93.8887 10.6394C93.5402 10.2709 93.1189 9.97875 92.6516 9.78146C92.1844 9.58416 91.6812 9.48601 91.174 9.49322C90.6706 9.48166 90.1705 9.57705 89.7067 9.77307C89.2429 9.9691 88.826 10.2613 88.4834 10.6304C87.7635 11.3885 87.4036 12.4432 87.4036 13.7945C87.4036 15.1458 87.7444 16.2005 88.4261 16.9587C88.7522 17.3273 89.155 17.6202 89.6062 17.8166C90.0575 18.0131 90.5463 18.1084 91.0383 18.0958H91.0473Z" fill="white" style="fill:white;fill-opacity:1;"/>
<path d="M99.8897 8.6212V10.3073C100.583 9.05857 101.727 8.43318 103.319 8.43117C103.85 8.41664 104.379 8.50902 104.874 8.70281C105.369 8.8966 105.82 9.18786 106.2 9.55928C106.968 10.3114 107.353 11.3952 107.355 12.8109V18.9672H106.049V13.0552C106.049 11.9181 105.772 11.0554 105.223 10.4612C104.612 9.88771 103.806 9.5685 102.968 9.5685C102.13 9.5685 101.324 9.88771 100.713 10.4612C100.164 11.0644 99.8897 11.9181 99.8897 13.0552V18.9672H98.5625V8.6212H99.8897Z" fill="white" style="fill:white;fill-opacity:1;"/>
<path d="M113.778 18.9679L108.952 5.74121H111.775L115.395 16.2984L119.015 5.74121H121.859L117 18.9679H113.778Z" fill="white" style="fill:white;fill-opacity:1;"/>
<path d="M123.536 18.9679V5.74121H126.209V18.9679H123.536Z" fill="white" style="fill:white;fill-opacity:1;"/>
<path d="M137.692 12.3379C137.293 12.7947 136.779 13.1372 136.205 13.3303C135.473 13.591 134.701 13.7167 133.924 13.7013H131.722V18.9679H129.05V5.74121H133.924C135.454 5.74121 136.633 6.12328 137.459 6.88742C137.85 7.2236 138.163 7.64033 138.377 8.10894C138.591 8.57756 138.701 9.08696 138.699 9.60212C138.705 10.6059 138.347 11.578 137.692 12.3379ZM131.722 11.6532H133.924C134.202 11.6721 134.48 11.636 134.744 11.547C135.007 11.458 135.25 11.3178 135.46 11.1344C135.64 10.9478 135.78 10.7263 135.871 10.4835C135.962 10.2407 136.003 9.98185 135.99 9.72278C136.004 9.46152 135.964 9.20025 135.872 8.95529C135.78 8.71033 135.639 8.48694 135.457 8.29906C135.033 7.93282 134.482 7.74947 133.924 7.7893H131.722V11.6532Z" fill="white" style="fill:white;fill-opacity:1;"/>
<path d="M137.882 18.8255C137.838 18.8713 137.785 18.9076 137.727 18.932C137.668 18.9564 137.605 18.9684 137.541 18.9673C137.478 18.9688 137.415 18.9569 137.356 18.9325C137.297 18.9081 137.244 18.8716 137.2 18.8255C137.154 18.7816 137.118 18.7287 137.093 18.67C137.068 18.6114 137.055 18.5483 137.056 18.4847C137.058 18.3561 137.11 18.2335 137.202 18.1428C137.293 18.0522 137.416 18.0006 137.544 17.999C137.608 17.9985 137.671 18.0111 137.73 18.036C137.788 18.0609 137.841 18.0976 137.885 18.1438C137.932 18.1874 137.969 18.2403 137.993 18.299C138.018 18.3577 138.031 18.4209 138.03 18.4847C138.03 18.5486 138.017 18.6118 137.991 18.6704C137.966 18.729 137.929 18.7818 137.882 18.8255Z" fill="white" style="fill:white;fill-opacity:1;"/>
<path d="M139.737 18.2946C139.239 17.7402 138.979 17.0122 139.013 16.2677C138.979 15.5232 139.239 14.7951 139.737 14.2407C139.977 13.9852 140.268 13.784 140.593 13.6508C140.917 13.5176 141.266 13.4555 141.616 13.4685C142.883 13.4685 143.687 14.0356 144.029 15.1697H143.275C143.177 14.8272 142.964 14.529 142.672 14.3251C142.354 14.114 141.979 14.0085 141.598 14.0235C141.346 14.0186 141.097 14.0674 140.866 14.1668C140.635 14.2661 140.428 14.4137 140.259 14.5996C139.882 15.0683 139.696 15.6617 139.737 16.2616C139.696 16.8633 139.882 17.4584 140.259 17.9297C140.429 18.1214 140.64 18.2732 140.877 18.3743C141.113 18.4754 141.368 18.5234 141.625 18.5148C142.006 18.5298 142.381 18.4243 142.699 18.2132C142.991 18.0093 143.204 17.7111 143.302 17.3686H144.044C143.889 17.8585 143.59 18.2898 143.184 18.6053C142.664 18.9557 142.039 19.1169 141.415 19.062C140.79 19.0071 140.203 18.7394 139.752 18.3037L139.737 18.2946Z" fill="white" style="fill:white;fill-opacity:1;"/>
<path d="M147.568 19.0663C147.218 19.0776 146.869 19.0146 146.545 18.8815C146.222 18.7484 145.93 18.5482 145.689 18.2941C145.19 17.742 144.929 17.0161 144.962 16.2731C144.946 15.9001 145.006 15.5277 145.139 15.1787C145.272 14.8297 145.474 14.5114 145.734 14.2431C146.253 13.7456 146.944 13.4678 147.663 13.4678C148.382 13.4678 149.073 13.7456 149.592 14.2431C149.851 14.5096 150.053 14.8258 150.185 15.1727C150.318 15.5196 150.379 15.8899 150.364 16.2611C150.378 16.6364 150.312 17.0104 150.173 17.359C150.033 17.7076 149.822 18.0231 149.553 18.285C149.291 18.5417 148.98 18.7431 148.64 18.8773C148.299 19.0115 147.934 19.0758 147.568 19.0663ZM147.568 18.5143C147.838 18.5173 148.107 18.4654 148.357 18.3617C148.606 18.258 148.833 18.1047 149.022 17.911C149.23 17.6927 149.391 17.4337 149.495 17.1504C149.599 16.867 149.643 16.5653 149.625 16.2641C149.641 15.9673 149.598 15.6703 149.499 15.3902C149.399 15.1101 149.245 14.8525 149.046 14.6322C148.863 14.4384 148.643 14.2847 148.397 14.1808C148.152 14.077 147.888 14.0252 147.622 14.029C147.358 14.0242 147.097 14.0755 146.854 14.1795C146.612 14.2835 146.395 14.4378 146.216 14.6322C145.819 15.0879 145.616 15.6815 145.652 16.2852C145.616 16.8837 145.807 17.474 146.186 17.9382C146.36 18.1286 146.573 18.2788 146.81 18.3784C147.048 18.4779 147.304 18.5243 147.562 18.5143H147.568Z" fill="white" style="fill:white;fill-opacity:1;"/>
<path d="M152.179 13.568V14.4488C152.353 14.131 152.614 13.8697 152.931 13.696C153.249 13.5222 153.61 13.4432 153.971 13.4685C154.375 13.4606 154.774 13.565 155.123 13.7701C155.468 13.9799 155.734 14.2981 155.88 14.675C156.049 14.3006 156.327 13.9855 156.676 13.7701C157.042 13.5577 157.46 13.4532 157.883 13.4685C158.162 13.4624 158.439 13.5128 158.698 13.6164C158.958 13.7201 159.193 13.8749 159.391 14.0717C159.602 14.2987 159.765 14.5664 159.868 14.8584C159.972 15.1505 160.015 15.4607 159.994 15.7699V18.9672H159.292V15.8815C159.327 15.392 159.173 14.9075 158.863 14.5272C158.544 14.2286 158.123 14.0626 157.685 14.0626C157.248 14.0626 156.827 14.2286 156.507 14.5272C156.197 14.9075 156.044 15.392 156.079 15.8815V18.9672H155.394V15.8815C155.43 15.392 155.276 14.9075 154.966 14.5272C154.647 14.2286 154.226 14.0626 153.788 14.0626C153.351 14.0626 152.93 14.2286 152.61 14.5272C152.299 14.9072 152.145 15.3916 152.179 15.8815V18.9672H151.488V13.568H152.179Z" fill="white" style="fill:white;fill-opacity:1;"/>
<path d="M20.7639 0.456055L18.5469 4.05153H22.5496L24.7454 0.456055H20.7639Z" fill="white" style="fill:white;fill-opacity:1;"/>
<path d="M13.001 13.0555L17.3113 6.05762H21.314L15.0129 16.289L13.001 13.0555Z" fill="white" style="fill:white;fill-opacity:1;"/>
<path d="M13.8144 18.2524L4.7895 3.86452H15.1114L17.618 0.456055H1.70379C1.39915 0.456134 1.10009 0.537872 0.83776 0.69276C0.575428 0.847649 0.359411 1.07002 0.212195 1.33674C0.0649797 1.60345 -0.00805159 1.90475 0.000704188 2.20927C0.00945996 2.51378 0.0996827 2.81039 0.26198 3.0682L11.7814 21.5433L13.8144 18.2524Z" fill="white" style="fill:white;fill-opacity:1;"/>
<path d="M17.6722 0.456055L11.4525 10.5427L9.36523 7.19455L13.757 0.456055H17.6722Z" fill="white" style="fill:white;fill-opacity:1;"/>
</svg>
