<svg width="250" height="198" viewBox="0 0 250 198" fill="none" xmlns="http://www.w3.org/2000/svg">
<g clip-path="url(#clip0_630_3802)">
<path d="M93.0338 94.6913C96.1536 94.6913 98.6826 92.1572 98.6826 89.0313C98.6826 85.9054 96.1536 83.3713 93.0338 83.3713C89.914 83.3713 87.3849 85.9054 87.3849 89.0313C87.3849 92.1572 89.914 94.6913 93.0338 94.6913Z" fill="#2EBFCA" style="fill:#2EBFCA;fill:color(display-p3 0.1804 0.7490 0.7922);fill-opacity:1;"/>
<path d="M133.301 111.059C135.894 111.059 137.997 108.952 137.997 106.354C137.997 103.755 135.894 101.648 133.301 101.648C130.707 101.648 128.605 103.755 128.605 106.354C128.605 108.952 130.707 111.059 133.301 111.059Z" fill="#2EBFCA" style="fill:#2EBFCA;fill:color(display-p3 0.1804 0.7490 0.7922);fill-opacity:1;"/>
<path d="M83.8248 73.6758C86.0988 73.6758 87.9423 71.8287 87.9423 69.5502C87.9423 67.2717 86.0988 65.4246 83.8248 65.4246C81.5508 65.4246 79.7073 67.2717 79.7073 69.5502C79.7073 71.8287 81.5508 73.6758 83.8248 73.6758Z" fill="#2EBFCA" style="fill:#2EBFCA;fill:color(display-p3 0.1804 0.7490 0.7922);fill-opacity:1;"/>
<path d="M111.551 145.964V141.761H121.74V179.447C121.092 189.217 116.067 195.859 106.234 197.538C95.8178 199.312 82.8868 196.195 80.0849 184.698H91.023C91.4275 184.698 92.6652 186.116 93.1686 186.452C96.8936 188.947 104.796 188.911 108.407 186.2C111.38 183.969 111.074 180.798 111.551 177.489C108.842 179.636 106.18 181.395 102.686 181.969C85.497 184.785 75.1462 166.109 82.0657 151.399C87.5288 139.782 102.324 136.995 111.554 145.964H111.551ZM98.8924 150.543C89.0901 151.949 87.2291 166.647 95.8777 171.43C102.258 174.958 110.975 171.286 111.826 163.803C112.791 155.309 107.613 149.294 98.8924 150.543Z" fill="white" style="fill:white;fill-opacity:1;"/>
<path d="M44.4237 164.28H29.1403V154.372H56.7103V159.326C56.7103 161.019 55.2029 165.887 54.4597 167.58C49.0177 179.993 37.3244 185.029 24.2316 183.161C-0.296684 179.663 -8.51974 148.174 10.4137 132.458C22.3257 122.568 42.9553 124.552 52.8085 136.509L45.4366 143.85C45.1309 143.919 42.1252 140.926 41.4119 140.427C25.2595 129.158 3.86279 144.532 12.2986 162.692C17.447 173.775 34.8641 177.699 42.7515 167.565C43.4108 166.718 44.2918 165.34 44.4237 164.286V164.28Z" fill="white" style="fill:white;fill-opacity:1;"/>
<path d="M73.492 141.761H63.0034V182.296H73.492V141.761Z" fill="white" style="fill:white;fill-opacity:1;"/>
<path d="M68.2837 138.482C71.943 138.482 74.9095 135.509 74.9095 131.843C74.9095 128.176 71.943 125.204 68.2837 125.204C64.6244 125.204 61.6579 128.176 61.6579 131.843C61.6579 135.509 64.6244 138.482 68.2837 138.482Z" fill="white" style="fill:white;fill-opacity:1;"/>
<path d="M164.593 162.179V127.048H175.082V181.395H165.042C164.356 180.588 163.733 179.672 163.145 178.792C156.16 168.367 149.738 157.131 142.495 146.946C142.303 146.676 142.525 146.406 141.821 146.562V181.392H131.332V127.045H141.371C141.878 127.465 142.18 128.039 142.546 128.57C149.882 139.247 156.361 151.09 163.862 161.56C164.033 161.8 164.293 162.134 164.596 162.176L164.593 162.179Z" fill="#0CBBCD" style="fill:#0CBBCD;fill:color(display-p3 0.0471 0.7333 0.8039);fill-opacity:1;"/>
<path d="M225.127 164.881H192.762C194.042 172.412 201.168 175.525 208.177 173.571C209.853 173.102 211.111 172.276 212.52 171.316C213.113 170.91 213.293 170.211 214.168 170.277C214.608 170.313 218.729 172.336 219.541 172.73C219.985 172.943 222.433 174.099 222.427 174.339C219.712 177.867 216.517 180.738 212.178 182.083C194.71 187.497 178.908 174.096 183.616 155.867C188.861 135.557 219.385 135.677 224.387 156.167C224.582 156.963 225.127 159.329 225.127 159.93V164.884V164.881ZM214.638 156.774C213.862 152.93 209.676 149.859 205.81 149.555C199.993 149.099 195.504 151.219 193.362 156.774H214.638Z" fill="#0CBBCD" style="fill:#0CBBCD;fill:color(display-p3 0.0471 0.7333 0.8039);fill-opacity:1;"/>
<path d="M244.007 127.048V141.761H250V150.468H244.456L244.007 150.919V171.036C244.007 171.123 244.747 172.381 244.897 172.547C246.053 173.814 248.433 173.595 250 173.589V181.996H241.759C241.675 181.996 240.47 181.558 240.201 181.455C236.727 180.17 234.093 176.549 233.806 172.85C233.272 166.001 234.408 158.323 233.833 151.504C233.806 151.198 233.698 150.468 233.368 150.468H228.723V141.761H233.818V127.048H244.007Z" fill="#0CBBCD" style="fill:#0CBBCD;fill:color(display-p3 0.0471 0.7333 0.8039);fill-opacity:1;"/>
<path d="M177.8 52.2608C183.589 53.0325 183.233 60.9174 177.491 61.3018C176.436 71.778 171.872 81.5546 165.834 90.031C165.822 91.0189 166.583 91.5653 166.7 92.6553C166.975 95.2075 166.139 97.8349 163.799 99.0779C157.404 102.474 151.491 94.2047 156.526 89.3854C157.332 88.6138 158.968 88.4876 158.92 87.2686C158.3 83.8666 157.643 80.4676 156.717 77.1347C156.364 75.8646 155.774 73.3363 155.252 72.2974C154.895 71.5798 153.268 71.6188 152.606 71.9491C152.004 72.2494 150.325 74.3092 149.615 74.9577C146.442 77.8463 143.019 80.6748 139.516 83.155C138.365 83.9717 131.946 87.6919 131.695 88.0793C131.527 88.3375 131.458 89.4335 131.149 90.085C129.189 94.2197 123.061 93.9434 121.515 89.5866C120.99 88.1063 121.32 87.8871 121.434 86.623C121.536 85.494 119.63 84.5272 118.884 83.8155C114.97 80.0773 111.359 75.8465 107.958 71.6428C107.499 71.0753 106.996 70.4057 106.714 69.7302C104.457 70.1355 101.946 70.4778 100.508 68.2979C99.1561 66.2501 99.294 63.7729 101.227 62.1875L101.323 61.7912C98.3979 56.99 96.0035 51.8885 93.9388 46.6549C93.6841 46.0093 93.3305 44.0936 92.7821 43.9105C92.1647 43.7063 91.1608 43.9735 90.4326 43.8624C89.7044 43.7513 89.186 43.0067 88.4787 43.412L76.5217 56.0892C77.0672 57.8097 77.4987 59.2269 76.6146 60.9625C74.3281 65.4394 67.3068 63.0613 68.1668 57.9028C68.5055 55.879 69.881 55.2755 71.3524 54.1885C71.7509 41.5534 77.3908 29.3086 86.2462 20.4478L86.3391 20.0545C83.8578 16.076 87.328 11.3318 91.8561 12.1125C92.7641 12.2687 93.3784 12.8392 94.1845 13.1214C102.878 6.94499 113.606 3.79222 124.254 3.60005L124.595 3.34182C125.183 0.249102 129.141 -0.933938 131.62 0.795582C132.833 1.63932 133.238 3.76519 133.73 4.08647C134.266 4.43478 136.51 4.681 137.389 4.92421C146.993 7.56053 155.738 12.0285 162.987 18.9165C166.709 16.4784 171.701 19.6852 170.449 24.069C170.245 24.7777 169.028 26.0478 169.139 26.5612C174.221 34.1459 177.092 43.1478 177.803 52.2608H177.8ZM124.437 5.44367C115.83 5.64785 107.232 7.92084 99.6596 11.9924L97.7686 13.2475C100.052 12.9593 102.524 12.2086 104.805 12.0465C106.192 11.9474 108.719 12.3347 109.848 11.9954C110.4 11.8303 111.089 10.6803 111.742 10.2899C114.209 8.81563 115.246 10.5001 116.729 10.2059C117.143 10.1248 122.651 6.74981 123.544 6.20033C123.867 6.00216 124.371 5.90607 124.437 5.44667V5.44367ZM161.261 23.1172C161.195 21.9792 161.977 21.0093 161.311 19.9854C160.85 19.2738 158.108 17.214 157.245 16.5534C150.388 11.3138 142.156 7.81575 133.727 6.04119L138.228 9.78548C142.102 13.5418 145.77 17.4872 149.004 21.8231C152.049 20.3578 155.582 21.1685 156.981 24.3753L161.258 23.1142L161.261 23.1172ZM147.212 22.853C143.052 17.0729 138.099 11.8573 132.378 7.61457C129.945 9.64136 127.697 9.38913 125.237 7.58755C124.224 8.03494 117.985 11.3138 117.844 11.9023C117.748 12.3017 118.317 12.7431 118.653 12.8842C126.148 13.9652 133.271 16.6225 140.223 19.496L147.212 22.853ZM109.456 14.1483C107.835 14.2384 106.115 14.0282 104.505 14.1483C102.683 14.2804 98.32 14.971 96.6928 15.6286C96.4081 15.7457 96.1024 15.7787 96.0035 16.1391L95.9766 18.346C97.9964 18.1208 103.235 20.8682 104.754 20.4148C105.257 20.2647 105.806 19.1207 106.294 18.6433C107.622 17.3521 109.965 16.4303 109.453 14.1513L109.456 14.1483ZM146.313 24.9548C146.244 24.4984 145.746 24.3963 145.42 24.2011C144.08 23.4024 142.264 22.5677 140.826 21.8981C133.703 18.5832 126.157 16.2622 118.446 14.7458C117.994 17.9857 114.706 19.7482 111.763 18.289C111.332 18.0758 110.927 17.3792 110.535 17.4662L106.459 21.2045L118.881 26.9305C127.221 25.147 136.424 24 144.976 24.6455C145.471 24.6816 145.827 24.9968 146.313 24.9548ZM94.7539 34.251C96.1354 31.2634 98.1732 28.3658 100.169 25.7115C100.84 24.8197 102.159 23.6397 102.614 22.7539C102.791 22.4146 103.01 22.4086 102.56 22.1023C102 21.721 98.6377 20.7871 97.7716 20.595C97.0284 20.4268 96.2703 20.2917 95.5211 20.1416C94.4572 20.643 94.0557 21.5288 92.8809 22.0122C92.0838 22.3425 91.1458 22.5197 90.2828 22.5617C90.055 22.7449 90.7862 27.6272 90.9091 28.3718C91.1009 29.5338 91.4725 32.2332 91.8201 33.164C91.9699 33.5634 94.5411 34.4041 94.7539 34.251ZM88.1761 21.6549C87.6636 21.5288 87.5797 21.8531 87.277 22.1053C85.8776 23.2733 84.0645 25.5734 82.9557 27.0837C77.181 34.9416 73.5939 44.571 73.2044 54.3747C74.0075 54.2726 74.8136 54.9932 75.4519 54.4047L87.2411 41.8837C85.4131 38.8 86.432 34.8245 89.9921 33.7976L88.1761 21.6549ZM115.746 27.3629L104.952 23.0001C101.715 26.5132 99.0273 30.4827 96.5699 34.5633L115.749 27.3599L115.746 27.3629ZM167.539 27.414C165.828 27.3419 164.182 27.5461 162.819 26.288C162.387 25.8886 162.205 24.9848 161.515 25.0179C161.105 25.0389 157.652 26.267 157.536 26.4411L156.891 29.3176L168.788 41.4693L170.586 33.2271L167.539 27.411V27.414ZM146.615 26.7564C145.321 26.9906 144.095 26.5042 142.882 26.4441C137.724 26.1859 131.521 26.6183 126.417 27.39C124.859 27.6272 123.238 27.9244 121.743 28.4078L130.532 34.2059C132.591 32.9268 134.284 33.2601 136.226 34.5242C139.693 32.4704 143.148 30.3325 146.915 28.8522L146.615 26.7564ZM128.887 35.5121L119.333 29.3237C117.88 28.7952 114.365 30.0353 112.749 30.5097C107.205 32.1371 101.907 34.4582 96.5999 36.6951C96.7437 38.3886 96.9925 39.3615 96.2343 40.9859C95.8178 41.8807 94.694 42.5833 94.8138 43.349C94.9667 44.3248 95.9916 46.7119 96.4201 47.7749C98.2481 52.3329 100.66 56.5966 102.899 60.9504L106.154 61.1456C111.635 54.4707 117.64 48.4805 124.29 42.9767C125.213 42.211 128.473 40.1872 128.629 39.2173C128.818 38.0523 128.623 36.6951 128.884 35.5121H128.887ZM147.715 30.4016L137.454 36.0646C137.454 37.4818 137.928 38.7039 137.11 40.1301C143.73 46.7239 149.378 54.3116 153.358 62.8091L153.634 63.0072C154.824 62.4758 155.893 63.1123 156.951 63.6198L161.545 57.1731C160.356 49.7386 158.3 42.3581 155.054 35.5631C154.692 34.8035 153.679 32.4104 152.999 32.2182C152.45 32.0621 151.812 32.2572 151.272 32.1461C149.828 31.8519 148.902 31.1673 147.709 30.4046L147.715 30.4016ZM155.456 30.9631C154.907 31.0682 155.138 31.4315 155.252 31.7588C155.681 32.9809 156.61 34.329 157.155 35.5601C159.891 41.7215 160.946 46.748 162.747 53.0775C162.858 53.4679 162.837 53.8222 163.241 54.0774C163.805 54.0774 167.542 45.0665 167.826 43.7693C164.887 39.6587 161.261 36.1607 157.706 32.6055C157.128 32.4074 155.896 30.876 155.456 30.9631ZM175.681 52.2788C175.615 47.5106 174.476 41.8957 172.618 37.4848C172.438 37.0614 172.313 36.4879 171.791 36.3648L170.053 43.373L175.684 52.2758L175.681 52.2788ZM130.038 83.9056C130.613 84.4551 131.044 86.1276 131.943 85.7943C138.866 81.5035 145.471 76.6152 151.072 70.709C150.149 68.8834 149.462 67.5592 150.382 65.5205C150.637 64.956 151.725 63.9831 151.668 63.5958C148.764 57.8427 145.354 52.2788 141.215 47.3305C140.55 46.5348 136.436 41.9377 135.917 41.8056C135.333 41.6525 134.79 42.262 134.164 42.3611C132.333 42.6524 131.203 42.1269 129.72 41.1931C121.56 47.3515 114.053 54.3536 107.691 62.3797C108.416 63.857 108.809 65.1361 108.542 66.8326C108.431 67.5442 107.715 68.0247 108.173 68.7063C112.432 74.3963 117.182 79.7019 122.486 84.4041C124.296 82.2692 127.958 81.9179 130.032 83.9056H130.038ZM169.684 45.9763L169.076 46.1594C168.312 47.7148 167.793 49.4293 167.047 50.9847C165.639 53.9183 163.502 56.3024 163.694 59.6413C164.149 67.6643 164.515 73.7447 163.367 81.8248C163.08 83.8396 162.567 85.8363 162.181 87.8301L164.149 88.872C170.305 80.975 174.2 71.3486 175.678 61.4128L175.552 60.9835C173.511 59.8665 172.636 58.0739 173.002 55.7439C173.149 54.804 174.114 54.0714 173.838 53.0985L169.687 45.9763H169.684ZM160.694 85.6081C161.108 83.176 161.65 80.7198 161.899 78.2577C162.285 74.4503 162.27 70.6189 162.19 66.8476C162.145 64.6797 162.339 62.5208 161.89 60.3889L158.641 64.8148C159.079 67.4181 159.34 69.7752 156.852 71.3366L158.51 76.5371L160.688 85.6111L160.694 85.6081Z" fill="#2EBFCA" style="fill:#2EBFCA;fill:color(display-p3 0.1804 0.7490 0.7922);fill-opacity:1;"/>
</g>
<defs>
<clipPath id="clip0_630_3802">
<rect width="250" height="198" fill="white" style="fill:white;fill-opacity:1;"/>
</clipPath>
</defs>
</svg>
